<?xml version="1.0" standalone="no"?>
<!DOCTYPE svg PUBLIC "-//W3C//DTD SVG 20010904//EN"
 "http://www.w3.org/TR/2001/REC-SVG-20010904/DTD/svg10.dtd">
<svg version="1.0" xmlns="http://www.w3.org/2000/svg"
 width="2876.000000pt" height="963.000000pt" viewBox="0 0 2876.000000 963.000000"
 preserveAspectRatio="xMidYMid meet">

<g transform="translate(0.000000,963.000000) scale(0.100000,-0.100000)"
fill="#000000" stroke="none">
<path d="M15365 8154 c-224 -44 -406 -220 -465 -450 -25 -97 -27 -288 -4 -384
53 -225 230 -401 459 -456 101 -24 286 -22 387 4 287 77 458 315 458 636 0
136 -19 229 -65 322 -110 225 -322 346 -602 343 -54 0 -129 -7 -168 -15z"/>
<path d="M26506 8154 c-220 -48 -389 -202 -458 -418 -14 -43 -21 -102 -25
-196 -5 -116 -2 -148 15 -217 38 -150 101 -252 210 -339 118 -95 250 -137 432
-137 208 0 354 55 475 177 80 81 123 149 157 251 20 62 23 89 23 235 0 155 -2
170 -28 243 -75 214 -238 355 -460 401 -94 20 -249 19 -341 0z"/>
<path d="M4340 8144 c-1004 -59 -1919 -540 -2522 -1324 -367 -478 -597 -1031
-684 -1642 -21 -153 -30 -563 -15 -725 16 -169 44 -344 82 -504 l31 -130 51
73 c27 40 64 93 81 118 38 56 213 300 308 428 414 561 833 1013 1213 1306 186
143 378 266 579 371 397 207 755 302 1309 346 190 15 619 7 787 -15 485 -63
924 -202 1560 -491 409 -187 739 -335 745 -335 7 0 -85 272 -128 376 -177 430
-415 783 -756 1125 -559 558 -1290 910 -2086 1004 -125 14 -443 25 -555 19z"/>
<path d="M23650 7954 c-140 -37 -399 -131 -535 -195 -38 -18 -191 -87 -340
-155 -148 -68 -283 -134 -300 -147 -27 -22 -29 -27 -20 -53 8 -23 23 -34 75
-54 84 -32 144 -92 165 -163 13 -44 15 -258 15 -1733 0 -1834 2 -1774 -57
-1920 -14 -37 -41 -86 -60 -110 -18 -24 -33 -46 -33 -49 0 -3 342 -5 760 -5
l760 0 -33 43 c-17 23 -45 70 -60 104 -54 120 -60 169 -64 533 l-4 335 44 -85
c102 -201 231 -376 392 -529 357 -340 737 -488 1180 -461 121 7 182 27 225 74
l25 28 3 536 c3 561 1 595 -40 647 -27 35 -101 34 -183 -1 -102 -44 -276 -102
-355 -118 -173 -35 -416 -29 -582 13 -330 85 -606 319 -691 586 -29 91 -31
236 -4 312 18 52 71 129 117 171 45 40 144 90 225 114 72 21 101 23 285 23
302 0 383 -21 826 -213 82 -36 196 -58 250 -48 48 9 98 59 113 111 14 51 15
873 1 909 -22 58 -156 120 -317 147 -96 16 -321 13 -433 -5 -438 -71 -802
-318 -1032 -700 l-48 -79 -2 1042 -3 1043 -37 34 c-35 32 -42 34 -105 33 -38
0 -93 -7 -123 -15z"/>
<path d="M11808 6610 c-161 -15 -344 -78 -460 -158 -62 -43 -172 -159 -283
-297 -53 -66 -108 -130 -123 -142 -32 -27 -68 -30 -80 -5 -5 9 -12 85 -15 167
-7 215 -37 294 -127 345 l-45 25 -592 3 c-326 1 -593 0 -593 -4 0 -3 12 -20
27 -38 38 -45 80 -139 100 -226 17 -70 18 -163 18 -1320 0 -1157 -1 -1250 -18
-1320 -20 -87 -62 -181 -100 -226 -15 -18 -27 -35 -27 -38 0 -3 342 -6 761 -6
l761 0 -30 38 c-44 56 -80 133 -104 224 -22 81 -22 99 -26 838 -3 762 0 867
33 995 35 137 113 244 208 286 42 18 70 23 144 24 85 0 94 -2 135 -30 59 -41
104 -133 119 -240 7 -53 9 -370 7 -935 -4 -841 -4 -856 -26 -937 -24 -91 -67
-183 -107 -232 l-27 -31 761 0 c419 0 761 3 761 6 0 3 -11 20 -26 36 -36 44
-70 115 -95 200 -21 70 -22 98 -31 793 -5 396 -7 772 -4 835 17 337 136 519
354 537 139 11 222 -44 264 -177 l23 -75 0 -900 c0 -812 -2 -907 -17 -973 -21
-89 -62 -183 -105 -239 l-33 -43 760 0 c418 0 760 3 760 6 0 3 -11 20 -26 36
-38 46 -73 121 -96 206 -20 74 -21 110 -29 937 -12 1339 -11 1327 -85 1555
-45 136 -100 228 -190 317 -129 128 -286 185 -514 185 -224 0 -412 -52 -571
-161 -61 -40 -187 -174 -298 -313 -102 -129 -125 -148 -173 -148 -50 0 -75 23
-93 88 -23 79 -75 189 -123 258 -142 207 -388 303 -704 274z"/>
<path d="M15955 6610 c-115 -17 -344 -98 -580 -205 -262 -119 -598 -285 -622
-307 -43 -40 -28 -66 67 -115 59 -31 93 -72 113 -137 18 -60 18 -2051 -1
-2151 -20 -110 -51 -191 -97 -261 l-43 -64 759 0 759 0 -33 48 c-67 95 -101
201 -117 361 -6 65 -10 591 -10 1431 l0 1328 -25 31 c-14 16 -34 32 -43 35
-41 11 -80 13 -127 6z"/>
<path d="M18629 6609 c-155 -15 -334 -85 -442 -173 -80 -65 -140 -132 -254
-284 -98 -131 -129 -161 -165 -162 -23 0 -26 17 -32 185 -8 206 -43 302 -128
347 l-43 23 -598 3 -597 3 40 -53 c43 -56 71 -121 98 -227 16 -60 17 -175 17
-1311 l0 -1245 -22 -84 c-27 -99 -53 -156 -99 -217 l-34 -44 761 0 c418 0 759
3 757 8 -1 4 -20 32 -41 62 -46 69 -72 142 -92 259 -14 77 -15 200 -13 868 4
774 4 778 26 852 28 91 50 134 96 188 76 88 193 129 341 120 169 -10 277 -74
351 -207 67 -122 139 -190 200 -190 23 0 103 85 133 141 48 90 330 658 375
755 25 56 46 113 46 128 0 119 -208 230 -478 256 -59 5 -109 9 -112 9 -3 -1
-44 -5 -91 -10z"/>
<path d="M20595 6610 c-501 -26 -888 -160 -1080 -372 -79 -87 -79 -88 -83
-393 -3 -176 0 -282 7 -305 28 -95 120 -135 209 -93 52 24 179 157 280 293
210 281 301 385 405 463 156 115 247 151 392 151 199 1 292 -61 356 -240 18
-47 22 -83 23 -176 1 -103 -1 -120 -20 -145 -37 -50 -78 -69 -235 -107 -444
-108 -805 -278 -1105 -520 -203 -164 -379 -427 -448 -671 -46 -164 -51 -204
-51 -390 0 -171 2 -184 28 -259 92 -262 313 -458 589 -521 84 -19 277 -22 378
-6 209 34 349 100 520 246 148 127 197 157 252 159 56 1 91 -42 113 -138 19
-82 45 -131 87 -165 61 -49 91 -51 699 -51 l567 0 -44 65 c-53 80 -89 190
-103 318 -7 60 -11 380 -11 854 0 833 -1 853 -61 1041 -113 352 -364 647 -681
797 -290 137 -582 186 -983 165z m432 -1220 c42 -25 61 -55 72 -116 5 -27 11
-263 12 -524 3 -525 0 -548 -61 -670 -40 -79 -77 -120 -142 -155 -44 -24 -68
-30 -140 -33 -293 -14 -437 187 -438 609 0 239 41 411 137 572 58 98 186 231
264 275 107 60 236 79 296 42z"/>
<path d="M27075 6605 c-189 -35 -454 -143 -950 -385 -213 -104 -255 -130 -255
-160 0 -22 37 -55 77 -68 51 -17 100 -69 120 -126 17 -48 18 -118 18 -1086 0
-963 -1 -1041 -18 -1120 -21 -99 -59 -188 -104 -247 l-33 -43 760 0 c418 0
760 3 760 6 0 3 -11 20 -26 36 -35 43 -70 114 -96 200 l-22 73 -6 1420 c-5
1383 -6 1421 -24 1452 -32 53 -95 68 -201 48z"/>
<path d="M5175 5860 c-281 -37 -545 -171 -761 -385 -340 -338 -466 -838 -329
-1310 115 -397 446 -741 840 -873 159 -54 242 -67 430 -67 242 0 397 36 600
140 136 70 220 131 334 244 520 516 522 1346 5 1867 -204 206 -451 333 -739
379 -95 16 -279 18 -380 5z"/>
<path d="M8413 4187 c-28 -23 -102 -85 -165 -138 -1030 -870 -1755 -1247
-2573 -1339 -312 -35 -807 21 -1209 136 -541 155 -979 404 -1580 898 -261 216
-299 247 -430 354 -70 56 -129 102 -133 102 -11 0 7 -250 28 -395 118 -818
564 -1550 1256 -2062 436 -323 986 -532 1536 -584 183 -17 553 -7 727 20 989
154 1833 767 2278 1656 194 389 301 802 319 1233 3 89 4 162 2 162 -2 0 -27
-19 -56 -43z"/>
<path d="M22660 2952 c-109 -52 -120 -194 -20 -251 150 -84 294 105 170 224
-23 22 -41 29 -82 31 -29 2 -60 0 -68 -4z"/>
<path d="M25370 2361 c-264 -38 -473 -208 -553 -450 -117 -351 14 -724 310
-883 145 -78 362 -104 528 -63 388 95 602 483 496 898 -31 121 -83 210 -176
302 -92 93 -181 145 -300 175 -88 22 -226 32 -305 21z m275 -202 c140 -43 253
-156 306 -305 29 -83 37 -246 15 -337 -57 -244 -244 -390 -497 -389 -205 1
-354 92 -439 267 -48 98 -65 190 -57 304 10 142 54 247 140 338 129 137 333
183 532 122z"/>
<path d="M23830 2354 c-63 -12 -154 -49 -207 -83 -55 -35 -143 -123 -143 -142
0 -5 -4 -9 -9 -9 -4 0 -16 47 -26 105 l-18 105 -74 0 -73 0 0 -675 0 -675 95
0 95 0 0 393 c0 426 5 479 55 577 72 142 221 230 390 230 176 0 278 -93 305
-277 5 -37 10 -260 10 -495 l0 -428 95 0 95 0 0 454 c0 350 -3 471 -14 528
-38 197 -120 306 -279 367 -48 18 -85 24 -167 27 -58 1 -116 0 -130 -2z"/>
<path d="M26790 2339 c-75 -13 -170 -59 -222 -107 -63 -58 -91 -120 -96 -212
-10 -186 100 -304 391 -421 194 -78 263 -121 297 -190 46 -89 7 -193 -91 -245
-15 -7 -56 -18 -93 -24 -121 -19 -284 13 -403 80 -29 17 -54 30 -56 30 -2 0
-26 -32 -52 -72 -55 -83 -60 -75 70 -139 119 -58 217 -81 360 -82 182 -2 296
41 389 144 65 72 89 142 84 249 -7 183 -105 280 -409 406 -195 80 -248 115
-285 186 -20 39 -14 110 13 147 69 95 290 107 488 26 69 -28 64 -31 117 64
l28 49 -83 40 c-45 23 -109 48 -142 57 -76 19 -233 27 -305 14z"/>
<path d="M16960 2334 c-14 -2 -52 -9 -85 -15 -71 -12 -198 -52 -276 -86 l-56
-25 32 -76 c20 -47 38 -76 46 -75 8 1 58 18 112 37 127 47 259 70 357 63 202
-14 299 -105 303 -283 l2 -75 -220 -3 c-186 -3 -231 -6 -295 -24 -230 -65
-369 -197 -400 -382 -23 -134 23 -269 117 -346 153 -125 423 -133 635 -17 28
15 81 60 118 100 l67 73 12 -98 c18 -142 11 -132 92 -132 l69 0 0 488 c0 525
-2 547 -54 650 -28 55 -94 124 -151 157 -79 46 -162 67 -285 70 -63 2 -126 2
-140 -1z m384 -700 l46 -7 0 -41 c-1 -145 -83 -309 -194 -385 -145 -100 -385
-98 -476 5 -34 39 -44 82 -38 163 9 132 138 232 333 260 74 11 266 13 329 5z"/>
<path d="M18294 2326 c-191 -44 -305 -165 -306 -325 -1 -38 7 -90 16 -118 34
-102 160 -206 333 -276 232 -93 308 -140 342 -210 26 -53 26 -90 2 -142 -23
-51 -54 -78 -115 -106 -40 -17 -67 -21 -150 -20 -58 0 -127 7 -161 16 -66 17
-180 68 -206 91 -14 12 -21 6 -64 -62 -56 -89 -59 -81 55 -139 181 -92 417
-116 585 -59 61 21 146 75 180 116 15 17 38 54 53 82 24 46 27 62 27 151 0 91
-3 105 -28 151 -69 123 -144 174 -437 294 -113 46 -177 86 -211 133 -28 38
-30 48 -27 99 5 65 26 95 93 131 35 19 56 22 160 22 109 0 128 -3 205 -31 47
-17 92 -34 100 -38 11 -5 22 4 38 31 12 21 31 52 42 69 l20 31 -68 36 c-139
73 -341 104 -478 73z"/>
<path d="M19963 2320 c-101 -21 -207 -109 -236 -195 -36 -105 -13 -202 74
-318 28 -37 50 -69 48 -71 -2 -1 -31 -19 -64 -39 -182 -109 -266 -257 -235
-417 60 -315 453 -436 720 -222 25 20 51 42 58 49 7 7 16 13 19 13 3 0 46 -38
94 -85 49 -47 95 -85 102 -85 8 0 37 28 66 61 l52 62 -81 74 c-44 41 -89 87
-100 102 l-19 28 34 69 c31 61 75 185 75 211 0 8 -129 43 -160 43 -5 0 -14
-19 -21 -42 -6 -24 -20 -64 -31 -90 l-20 -48 -118 148 -118 147 47 27 c71 41
149 121 176 180 28 60 33 144 13 211 -17 55 -96 140 -156 165 -56 24 -159 35
-219 22z m137 -152 c58 -30 83 -76 77 -145 -5 -65 -35 -112 -105 -160 l-52
-36 -31 29 c-39 37 -96 123 -104 157 -22 85 53 172 150 176 12 1 41 -9 65 -21z
m-1 -731 l142 -178 -26 -31 c-83 -99 -212 -145 -318 -114 -94 27 -167 129
-167 236 0 68 25 123 77 173 51 49 136 107 144 99 3 -4 70 -87 148 -185z"/>
<path d="M21051 2223 c28 -59 170 -367 317 -683 l268 -575 35 -3 36 -3 313
678 c172 373 315 682 317 686 3 4 -43 6 -102 5 l-107 -3 -204 -455 c-113 -250
-215 -483 -227 -518 l-23 -63 -32 83 c-18 46 -121 279 -230 518 l-197 435
-107 3 -107 3 50 -108z"/>
<path d="M22620 1655 l0 -675 95 0 95 0 0 675 0 675 -95 0 -95 0 0 -675z"/>
<path d="M13603 1838 c4 -525 5 -536 64 -652 38 -74 70 -113 132 -157 80 -58
163 -81 291 -81 120 0 202 21 285 73 62 38 131 104 152 144 15 27 16 28 23 10
4 -11 13 -62 20 -113 l13 -92 73 0 74 0 0 675 0 675 -95 0 -95 0 0 -377 c0
-417 -6 -469 -60 -580 -84 -170 -245 -257 -428 -232 -78 11 -129 36 -172 85
-82 93 -90 157 -90 697 l0 407 -96 0 -95 0 4 -482z"/>
<path d="M15013 2308 c3 -7 146 -316 318 -686 l313 -673 35 3 35 3 313 675
c172 371 313 678 313 683 0 4 -46 7 -103 7 l-103 0 -212 -473 c-116 -260 -219
-495 -228 -521 l-17 -49 -14 44 c-14 41 -102 238 -343 772 l-103 227 -104 0
c-80 0 -104 -3 -100 -12z"/>
</g>
</svg>
